<svg id="Layer_1" data-name="Layer 1" xmlns="http://www.w3.org/2000/svg" viewBox="0 0 124.44 14.7"><defs><style>.cls-1{fill:#fff;}</style></defs><title>emailid</title><path class="cls-1" d="M1.43,4.81a4.31,4.31,0,0,1,1.15-.88A3.11,3.11,0,0,1,4,3.6a2.93,2.93,0,0,1,1.17.22,2.28,2.28,0,0,1,.85.62,2.76,2.76,0,0,1,.52,1,4.24,4.24,0,0,1,.18,1.26v5.16H5.32V6.67A2.18,2.18,0,0,0,4.9,5.25a1.56,1.56,0,0,0-1.28-.51A2.39,2.39,0,0,0,2.44,5a3.89,3.89,0,0,0-1,.82v6H0V0H1.43V4.81Z" transform="translate(0 -0.05)"/><path class="cls-1" d="M15.5,10.7a2.7,2.7,0,0,1-.63.56,4,4,0,0,1-.79.39,5,5,0,0,1-.87.23,5.29,5.29,0,0,1-.89.08,4.11,4.11,0,0,1-1.55-.28,3.39,3.39,0,0,1-1.22-.83,3.81,3.81,0,0,1-.8-1.36,5.5,5.5,0,0,1-.29-1.86A4.73,4.73,0,0,1,8.72,6a3.75,3.75,0,0,1,.75-1.28,3.44,3.44,0,0,1,1.19-.85,3.91,3.91,0,0,1,1.58-.31,3.65,3.65,0,0,1,1.35.24,3.05,3.05,0,0,1,1.07.7,3.24,3.24,0,0,1,.71,1.14,4.32,4.32,0,0,1,.26,1.54,0.93,0.93,0,0,1-.07.45,0.3,0.3,0,0,1-.27.11H9.87a4.7,4.7,0,0,0,.21,1.34,2.68,2.68,0,0,0,.52.95,2.12,2.12,0,0,0,.8.57,2.75,2.75,0,0,0,1,.19,3.06,3.06,0,0,0,.92-0.12A4.45,4.45,0,0,0,14,10.43a5.14,5.14,0,0,0,.47-0.27A0.62,0.62,0,0,1,14.83,10a0.31,0.31,0,0,1,.27.14ZM14.35,6.9A2.83,2.83,0,0,0,14.21,6a2,2,0,0,0-.41-0.71,1.82,1.82,0,0,0-.65-0.46,2.2,2.2,0,0,0-.87-0.16,2.19,2.19,0,0,0-1.62.6A2.79,2.79,0,0,0,9.92,6.9h4.43Z" transform="translate(0 -0.05)"/><path class="cls-1" d="M18.85,0V11.83H17.42V0h1.42Z" transform="translate(0 -0.05)"/><path class="cls-1" d="M22.62,0V11.83H21.2V0h1.42Z" transform="translate(0 -0.05)"/><path class="cls-1" d="M28.34,3.6a4.13,4.13,0,0,1,1.6.3,3.44,3.44,0,0,1,1.22.84,3.69,3.69,0,0,1,.77,1.32,5.23,5.23,0,0,1,.27,1.72,5.22,5.22,0,0,1-.27,1.73,3.69,3.69,0,0,1-.77,1.31,3.38,3.38,0,0,1-1.22.84,4.18,4.18,0,0,1-1.6.29,4.23,4.23,0,0,1-1.61-.29,3.38,3.38,0,0,1-1.22-.84,3.67,3.67,0,0,1-.77-1.31,5.22,5.22,0,0,1-.27-1.73,5.23,5.23,0,0,1,.27-1.72,3.68,3.68,0,0,1,.77-1.32,3.43,3.43,0,0,1,1.22-.84A4.19,4.19,0,0,1,28.34,3.6Zm0,7.23a2.08,2.08,0,0,0,1.79-.8,3.72,3.72,0,0,0,.59-2.24,3.76,3.76,0,0,0-.59-2.26,2.08,2.08,0,0,0-1.79-.81,2.51,2.51,0,0,0-1.06.21,2,2,0,0,0-.75.6,2.67,2.67,0,0,0-.45,1,5.17,5.17,0,0,0-.15,1.29,3.7,3.7,0,0,0,.6,2.24A2.11,2.11,0,0,0,28.34,10.83Z" transform="translate(0 -0.05)"/><path class="cls-1" d="M41.81,7.49a3.75,3.75,0,0,0-.15,1,1.33,1.33,0,0,0,.12.6,0.59,0.59,0,0,0,.32.29,1.33,1.33,0,0,0,.46.08,1.36,1.36,0,0,0,.74-0.22,2.08,2.08,0,0,0,.62-0.63,3.39,3.39,0,0,0,.42-1,4.8,4.8,0,0,0,.16-1.27,4.94,4.94,0,0,0-.35-1.94,3.84,3.84,0,0,0-1-1.39,4,4,0,0,0-1.46-.83A5.82,5.82,0,0,0,39.9,1.9a5,5,0,0,0-2,.41,5.05,5.05,0,0,0-1.63,1.13,5.34,5.34,0,0,0-1.1,1.7,5.59,5.59,0,0,0-.4,2.14,6.18,6.18,0,0,0,.43,2.39,4.93,4.93,0,0,0,1.17,1.72,4.87,4.87,0,0,0,1.74,1,6.42,6.42,0,0,0,2.14.35,7.91,7.91,0,0,0,2.15-.26A6.66,6.66,0,0,0,44,11.87a0.35,0.35,0,0,1,.28-0.06,0.27,0.27,0,0,1,.18.18l0.21,0.53a7.26,7.26,0,0,1-2,.9,8.57,8.57,0,0,1-2.47.33,7.39,7.39,0,0,1-2.58-.44A6,6,0,0,1,35.58,12a5.83,5.83,0,0,1-1.38-2,7,7,0,0,1-.5-2.72,6.4,6.4,0,0,1,1.8-4.47,6,6,0,0,1,1.25-1,6.18,6.18,0,0,1,1.48-.64A6,6,0,0,1,39.9,1a6.46,6.46,0,0,1,1.44.16,5.93,5.93,0,0,1,1.33.47,5.34,5.34,0,0,1,1.15.77,4.95,4.95,0,0,1,1.5,2.38,5.71,5.71,0,0,1,.21,1.59,5,5,0,0,1-.24,1.6,4.09,4.09,0,0,1-.67,1.27,3.15,3.15,0,0,1-1,.84,2.68,2.68,0,0,1-1.26.3,1.62,1.62,0,0,1-1-.3,1.41,1.41,0,0,1-.51-0.92,2.86,2.86,0,0,1-1,.92,2.53,2.53,0,0,1-1.18.28,2,2,0,0,1-.83-0.16,1.58,1.58,0,0,1-.59-0.46A2,2,0,0,1,36.9,9a3.06,3.06,0,0,1-.12-0.86A3.89,3.89,0,0,1,37,6.78a3.8,3.8,0,0,1,.77-1.25,4,4,0,0,1,1.27-.91,4.15,4.15,0,0,1,1.76-.35,4.71,4.71,0,0,1,.94.08,3.74,3.74,0,0,1,.77.24Zm-0.5-2.23a3.07,3.07,0,0,0-.69-0.07,2.41,2.41,0,0,0-1.1.25,2.83,2.83,0,0,0-.86.66A3.09,3.09,0,0,0,38.1,7a3,3,0,0,0-.2,1.08,1.49,1.49,0,0,0,.26.92,0.92,0.92,0,0,0,.78.35,1.65,1.65,0,0,0,.5-0.08A1.42,1.42,0,0,0,39.93,9a2.07,2.07,0,0,0,.44-0.54,3.5,3.5,0,0,0,.34-0.86Z" transform="translate(0 -0.05)"/><path class="cls-1" d="M54.22,4V4.58a0.35,0.35,0,0,1-.34.34L53,5a2.51,2.51,0,0,1,.27,1.17,2.45,2.45,0,0,1-.86,1.9,2.78,2.78,0,0,1-1,.53,3.86,3.86,0,0,1-1.22.18,4.09,4.09,0,0,1-1.07-.14,1.43,1.43,0,0,0-.39.34,0.6,0.6,0,0,0-.14.36,0.48,0.48,0,0,0,.24.44,1.69,1.69,0,0,0,.62.21,6.66,6.66,0,0,0,.88.08l1,0.05a9.44,9.44,0,0,1,1,.12,3,3,0,0,1,.88.29,1.65,1.65,0,0,1,.62.55,1.61,1.61,0,0,1,.24.91,2.12,2.12,0,0,1-.26,1,2.73,2.73,0,0,1-.75.87,3.87,3.87,0,0,1-1.2.61,5.21,5.21,0,0,1-1.6.23,6.1,6.1,0,0,1-1.55-.18,3.63,3.63,0,0,1-1.1-.47A2.07,2.07,0,0,1,47,13.42a1.62,1.62,0,0,1-.22-0.81,1.46,1.46,0,0,1,.38-1,2.6,2.6,0,0,1,1-.66,1.48,1.48,0,0,1-.57-0.43,1.24,1.24,0,0,1-.15-1.09A1.51,1.51,0,0,1,47.63,9,2,2,0,0,1,48,8.68a2.09,2.09,0,0,1,.45-0.3,2.49,2.49,0,0,1-.94-0.89,2.45,2.45,0,0,1-.34-1.29,2.49,2.49,0,0,1,.23-1.08A2.37,2.37,0,0,1,48,4.3a2.91,2.91,0,0,1,1-.52,4.23,4.23,0,0,1,2.22-.07A3.12,3.12,0,0,1,52,4h2.2Zm-1.45,8.22a0.68,0.68,0,0,0-.17-0.48,1.12,1.12,0,0,0-.45-0.29,2.92,2.92,0,0,0-.66-0.15l-0.8-.07-0.85,0q-0.43,0-.83-0.08a2.22,2.22,0,0,0-.73.52,1.07,1.07,0,0,0-.28.74,1,1,0,0,0,.14.51,1.2,1.2,0,0,0,.43.41,2.51,2.51,0,0,0,.72.27,5.27,5.27,0,0,0,2.06,0,2.59,2.59,0,0,0,.77-0.3,1.45,1.45,0,0,0,.48-0.46A1.07,1.07,0,0,0,52.77,12.27Zm-2.57-4.4A2.2,2.2,0,0,0,51,7.75a1.55,1.55,0,0,0,.55-0.34,1.37,1.37,0,0,0,.34-0.52A1.86,1.86,0,0,0,52,6.24a1.58,1.58,0,0,0-.45-1.18,2.18,2.18,0,0,0-2.62,0,1.58,1.58,0,0,0-.45,1.18,1.82,1.82,0,0,0,.12.66,1.41,1.41,0,0,0,.34.52,1.55,1.55,0,0,0,.55.34A2.2,2.2,0,0,0,50.21,7.87Z" transform="translate(0 -0.05)"/><path class="cls-1" d="M59,3.6a4.13,4.13,0,0,1,1.6.3,3.44,3.44,0,0,1,1.22.84,3.69,3.69,0,0,1,.77,1.32,5.23,5.23,0,0,1,.27,1.72,5.22,5.22,0,0,1-.27,1.73,3.69,3.69,0,0,1-.77,1.31,3.38,3.38,0,0,1-1.22.84,4.18,4.18,0,0,1-1.6.29,4.23,4.23,0,0,1-1.61-.29,3.38,3.38,0,0,1-1.22-.84,3.67,3.67,0,0,1-.77-1.31,5.22,5.22,0,0,1-.27-1.73,5.23,5.23,0,0,1,.27-1.72,3.68,3.68,0,0,1,.77-1.32,3.43,3.43,0,0,1,1.22-.84A4.19,4.19,0,0,1,59,3.6Zm0,7.23a2.08,2.08,0,0,0,1.79-.8,3.72,3.72,0,0,0,.59-2.24,3.76,3.76,0,0,0-.59-2.26A2.08,2.08,0,0,0,59,4.72a2.51,2.51,0,0,0-1.06.21,2,2,0,0,0-.75.6,2.67,2.67,0,0,0-.45,1,5.17,5.17,0,0,0-.15,1.29,3.7,3.7,0,0,0,.6,2.24A2.11,2.11,0,0,0,59,10.83Z" transform="translate(0 -0.05)"/><path class="cls-1" d="M67,12a2,2,0,0,1-1.48-.54A2.14,2.14,0,0,1,65,9.88v-5H64a0.32,0.32,0,0,1-.22-0.08,0.3,0.3,0,0,1-.09-0.24V4L65,3.87l0.33-2.5a0.34,0.34,0,0,1,.11-0.2A0.32,0.32,0,0,1,65.7,1.1h0.72V3.89h2.34v1H66.42V9.79a1,1,0,0,0,.25.76,0.87,0.87,0,0,0,.64.25,1.13,1.13,0,0,0,.39-0.06A1.68,1.68,0,0,0,68,10.6l0.2-.13a0.27,0.27,0,0,1,.15-0.06,0.25,0.25,0,0,1,.2.14L69,11.23a2.66,2.66,0,0,1-.89.54A3,3,0,0,1,67,12Z" transform="translate(0 -0.05)"/><path class="cls-1" d="M76.9,3.73v8.1H76.06a0.36,0.36,0,0,1-.38-0.3l-0.11-.87a4.47,4.47,0,0,1-1.18.94,3.11,3.11,0,0,1-1.5.36,2.93,2.93,0,0,1-1.17-.22,2.32,2.32,0,0,1-.85-0.62,2.64,2.64,0,0,1-.52-1,4.33,4.33,0,0,1-.17-1.26V3.73h1.42V8.9A2.17,2.17,0,0,0,72,10.32a1.58,1.58,0,0,0,1.28.5,2.42,2.42,0,0,0,1.18-.3,3.75,3.75,0,0,0,1-.83v-6H76.9Z" transform="translate(0 -0.05)"/><path class="cls-1" d="M80.59,0V7H81a0.72,0.72,0,0,0,.27,0,0.66,0.66,0,0,0,.23-0.18L84,4a1,1,0,0,1,.24-0.21,0.63,0.63,0,0,1,.33-0.08h1.29l-3,3.18a1.8,1.8,0,0,1-.46.42,1.49,1.49,0,0,1,.26.22,2.1,2.1,0,0,1,.22.28l3.17,4H84.8a0.76,0.76,0,0,1-.32-0.06,0.53,0.53,0,0,1-.23-0.22L81.59,8.23A0.63,0.63,0,0,0,81.36,8,0.92,0.92,0,0,0,81,8H80.59v3.87H79.16V0h1.43Z" transform="translate(0 -0.05)"/><path class="cls-1" d="M89.78,12a2,2,0,0,1-1.48-.54,2.14,2.14,0,0,1-.52-1.54v-5h-1a0.32,0.32,0,0,1-.22-0.08,0.3,0.3,0,0,1-.09-0.24V4l1.33-.17,0.33-2.5a0.34,0.34,0,0,1,.11-0.2,0.32,0.32,0,0,1,.22-0.08h0.72V3.89h2.34v1H89.21V9.79a1,1,0,0,0,.25.76,0.87,0.87,0,0,0,.64.25,1.13,1.13,0,0,0,.39-0.06,1.68,1.68,0,0,0,.28-0.13l0.2-.13a0.27,0.27,0,0,1,.15-0.06,0.25,0.25,0,0,1,.2.14l0.42,0.68a2.66,2.66,0,0,1-.89.54A3,3,0,0,1,89.78,12Z" transform="translate(0 -0.05)"/><path class="cls-1" d="M99.69,3.73v8.1H98.84a0.36,0.36,0,0,1-.38-0.3l-0.11-.87a4.47,4.47,0,0,1-1.18.94,3.11,3.11,0,0,1-1.5.36,2.93,2.93,0,0,1-1.17-.22,2.32,2.32,0,0,1-.85-0.62,2.64,2.64,0,0,1-.52-1,4.33,4.33,0,0,1-.17-1.26V3.73h1.42V8.9a2.17,2.17,0,0,0,.42,1.42,1.58,1.58,0,0,0,1.28.5,2.42,2.42,0,0,0,1.18-.3,3.75,3.75,0,0,0,1-.83v-6h1.42Z" transform="translate(0 -0.05)"/><path class="cls-1" d="M103.37,0V7h0.37a0.72,0.72,0,0,0,.27,0,0.66,0.66,0,0,0,.23-0.18L106.8,4A1,1,0,0,1,107,3.81a0.63,0.63,0,0,1,.33-0.08h1.29l-3,3.18a1.8,1.8,0,0,1-.46.42,1.49,1.49,0,0,1,.26.22,2.1,2.1,0,0,1,.22.28l3.17,4h-1.27a0.76,0.76,0,0,1-.32-0.06,0.53,0.53,0,0,1-.23-0.22l-2.66-3.32A0.63,0.63,0,0,0,104.14,8,0.92,0.92,0,0,0,103.78,8h-0.41v3.87h-1.43V0h1.43Z" transform="translate(0 -0.05)"/><path class="cls-1" d="M109.83,11a1,1,0,0,1,.28-0.71,1,1,0,0,1,1.1-.22,1,1,0,0,1,.32.22,1,1,0,0,1,.22.32,1,1,0,0,1,0,.79,1,1,0,0,1-.22.32,1,1,0,0,1-.32.21,1,1,0,0,1-.78,0,0.92,0.92,0,0,1-.32-0.21,1,1,0,0,1-.21-0.32A1,1,0,0,1,109.83,11Z" transform="translate(0 -0.05)"/><path class="cls-1" d="M115.65,1.19a0.9,0.9,0,0,1-.08.39,1.1,1.1,0,0,1-.22.32,1,1,0,0,1-.33.22,1,1,0,0,1-.4.08,0.94,0.94,0,0,1-.39-0.08,1,1,0,0,1-.32-0.22,1.08,1.08,0,0,1-.22-0.32,0.94,0.94,0,0,1-.08-0.39,1,1,0,0,1,.08-0.4,1,1,0,0,1,.22-0.33,1,1,0,0,1,.32-0.22,1,1,0,0,1,.39-0.08,1,1,0,0,1,.4.08,1,1,0,0,1,.33.22,1.07,1.07,0,0,1,.22.33A1,1,0,0,1,115.65,1.19Zm-0.3,2.54v8.1h-1.42V3.73h1.42Z" transform="translate(0 -0.05)"/><path class="cls-1" d="M119,4.9a4.85,4.85,0,0,1,.56-0.54A3.67,3.67,0,0,1,120.22,4a3.18,3.18,0,0,1,.7-0.26,3.36,3.36,0,0,1,.8-0.09,2.93,2.93,0,0,1,1.17.22,2.28,2.28,0,0,1,.85.62,2.76,2.76,0,0,1,.52,1,4.24,4.24,0,0,1,.18,1.26v5.16H123V6.67a2.18,2.18,0,0,0-.42-1.43,1.56,1.56,0,0,0-1.28-.51,2.39,2.39,0,0,0-1.18.3,3.89,3.89,0,0,0-1,.82v6h-1.43V3.73h0.86a0.35,0.35,0,0,1,.38.3Z" transform="translate(0 -0.05)"/></svg>